<?xml version="1.0" encoding="UTF-8"?>
<svg version="1.1" xmlns="http://www.w3.org/2000/svg" width="128" height="128">
<path d="M0 0 C5.48920728 4.11933432 10.36424944 8.54018217 13 15 C13.63762366 21.44368426 12.86170569 28.07985535 12.1875 34.5 C12.05275269 35.78922363 12.05275269 35.78922363 11.9152832 37.10449219 C9.56791564 58.62367339 6.33347671 84.98498712 -11.2734375 99.9296875 C-15.59680169 102.89554484 -20.0637146 105.21272425 -25 107 C-25.7528125 107.2784375 -26.505625 107.556875 -27.28125 107.84375 C-41.37305987 112.42783273 -56.3654602 110.85456881 -69.73828125 104.75 C-82.43891832 97.79724067 -91.59562152 86.10392651 -96.18725586 72.47631836 C-98.7760819 62.55390416 -99.85184478 52.9796619 -100.11352539 42.73461914 C-100.18802178 40.16953391 -100.32066864 37.61139014 -100.45507812 35.04882812 C-100.84310663 24.93112686 -100.18590587 17.81841959 -93 10 C-86.96340451 3.74723107 -78.89889242 -0.54817141 -71 -4 C-69.97519531 -4.48210938 -68.95039062 -4.96421875 -67.89453125 -5.4609375 C-45.789823 -14.85165193 -19.78019386 -14.48890322 0 0 Z " fill="#807871" transform="translate(109,15)"/>
<path d="M0 0 C0.886875 0.4021875 1.77375 0.804375 2.6875 1.21875 C9.64518758 4.69759379 18.81141236 9.58768192 21.8671875 17.14453125 C22.15897334 20.19661115 21.49550488 22.38606401 19.578125 24.76171875 C13.77552843 30.0636488 7.33140019 31.51766347 -0.1875 33 C-1.06736572 33.17370117 -1.94723145 33.34740234 -2.85375977 33.52636719 C-15.87256444 36.01369505 -28.73938905 37.38556294 -42 37 C-43.88932558 37.00412892 -45.77864875 37.00944772 -47.66796875 37.015625 C-49.7370036 36.99160256 -51.80601576 36.96554468 -53.875 36.9375 C-54.86266357 36.94869873 -55.85032715 36.95989746 -56.86791992 36.97143555 C-62.09958669 36.84567646 -65.26458701 36.38129531 -69.1328125 32.69140625 C-71.3484264 30.24042072 -72.56067342 28.30159322 -73 25 C-69.51710884 15.4220493 -61.82704803 9.42012121 -53 5 C-49.71049455 3.53191512 -46.38054512 2.2413805 -43 1 C-42.27554688 0.71125 -41.55109375 0.4225 -40.8046875 0.125 C-28.84454913 -4.60448438 -11.87567318 -5.44301688 0 0 Z " fill="#8CB881" transform="translate(91,16)"/>
<path d="M0 0 C5.49075749 4.12049765 10.36072736 8.54023204 13 15 C13.67095153 21.64937601 12.81093049 28.50116378 12.125 35.125 C12.04636719 35.96675781 11.96773438 36.80851562 11.88671875 37.67578125 C11.35604865 42.9416615 10.63596868 47.95480988 9 53 C7.515 53.495 7.515 53.495 6 54 C6.09087891 53.23969482 6.18175781 52.47938965 6.27539062 51.69604492 C6.69018681 48.19394197 7.09514577 44.69076564 7.5 41.1875 C7.64308594 39.99189453 7.78617187 38.79628906 7.93359375 37.56445312 C9.93676951 24.90006437 9.93676951 24.90006437 7.453125 12.73046875 C1.66759737 6.05249271 -3.85071864 2.32686018 -12 -1 C-13.59521484 -1.70962891 -13.59521484 -1.70962891 -15.22265625 -2.43359375 C-32.62789064 -10.04703581 -49.42550916 -7.18471572 -66.61865234 -0.57080078 C-78.28595828 4.12676353 -89.13386762 9.26773525 -95 21 C-95.2393442 25.59613388 -95.22860182 30.19669497 -95.24023438 34.79833984 C-95.24975984 37.06778244 -95.28068614 39.33624608 -95.3125 41.60546875 C-95.47602862 63.75829701 -89.71340603 80.96915143 -74 97 C-66.8317921 102.94223168 -58.98720316 104.35873091 -49.875 104.25 C-49.0389624 104.24178223 -48.2029248 104.23356445 -47.34155273 104.22509766 C-32.57409457 103.96116499 -19.73756586 101.34416197 -8.67578125 90.83203125 C-0.68036082 82.09111708 1.79936771 70.59227938 4.2890625 59.30078125 C4.52367188 58.54152344 4.75828125 57.78226562 5 57 C5.66 56.67 6.32 56.34 7 56 C5.76390617 72.60424549 2.57752206 85.2722681 -9 98 C-13.79278472 102.06344791 -19.09754932 104.86290579 -25 107 C-25.7528125 107.2784375 -26.505625 107.556875 -27.28125 107.84375 C-41.37305987 112.42783273 -56.3654602 110.85456881 -69.73828125 104.75 C-82.43891832 97.79724067 -91.59562152 86.10392651 -96.18725586 72.47631836 C-98.7760819 62.55390416 -99.85184478 52.9796619 -100.11352539 42.73461914 C-100.18802178 40.16953391 -100.32066864 37.61139014 -100.45507812 35.04882812 C-100.84310663 24.93112686 -100.18590587 17.81841959 -93 10 C-86.96340451 3.74723107 -78.89889242 -0.54817141 -71 -4 C-69.97519531 -4.48210938 -68.95039062 -4.96421875 -67.89453125 -5.4609375 C-45.789823 -14.85165193 -19.78019386 -14.48890322 0 0 Z " fill="#3C3733" transform="translate(109,15)"/>
<path d="M0 0 C2.31 0.33 4.62 0.66 7 1 C7.495 4.465 7.495 4.465 8 8 C8.598125 7.505 9.19625 7.01 9.8125 6.5 C12 5 12 5 15 5 C15.1799928 10.21979128 14.97094808 14.07262981 13 19 C13.66 19 14.32 19 15 19 C15.26554687 18.45859375 15.53109375 17.9171875 15.8046875 17.359375 C17.19011305 14.62474418 18.65258458 11.93875859 20.125 9.25 C20.66382813 8.26515625 21.20265625 7.2803125 21.7578125 6.265625 C22.16773438 5.51796875 22.57765625 4.7703125 23 4 C24.32 4 25.64 4 27 4 C27 4.66 27 5.32 27 6 C27.61875 6.12375 28.2375 6.2475 28.875 6.375 C31 7 31 7 33 9 C33.1953125 11.1640625 33.1953125 11.1640625 33.125 13.625 C33.10695312 14.44226562 33.08890625 15.25953125 33.0703125 16.1015625 C33.04710937 16.72804688 33.02390625 17.35453125 33 18 C32.34 18 31.68 18 31 18 C30.505 20.475 30.505 20.475 30 23 C29.01 23.33 28.02 23.66 27 24 C26.76152344 24.64582031 26.52304688 25.29164062 26.27734375 25.95703125 C25 28 25 28 21.69140625 29.01171875 C20.31846466 29.2566291 18.94170701 29.48076898 17.5625 29.6875 C16.47714966 29.86792847 16.47714966 29.86792847 15.36987305 30.05200195 C5.23029385 31.68618272 -4.72866057 32.26695313 -15 32 C-16.43859375 31.97486328 -16.43859375 31.97486328 -17.90625 31.94921875 C-22.1163014 31.73252493 -24.32057112 31.53722284 -27.6875 28.875 C-29.37545428 25.17757634 -28.9170457 22.89744424 -28 19 C-24.7 19.33 -21.4 19.66 -18 20 C-18.33 17.03 -18.66 14.06 -19 11 C-15.29162318 11.9270942 -13.20973168 13.07416099 -10 15 C-7.80869466 15.69579454 -7.80869466 15.69579454 -6 16 C-6.474375 15.566875 -6.94875 15.13375 -7.4375 14.6875 C-10.11032589 11.80084804 -10.11679718 9.05900514 -10.0625 5.3125 C-10.05347656 4.50425781 -10.04445313 3.69601563 -10.03515625 2.86328125 C-10.02355469 2.24839844 -10.01195313 1.63351563 -10 1 C-4.25 0.875 -4.25 0.875 -2 2 C-2 3.32 -2 4.64 -2 6 C-2.66 6 -3.32 6 -4 6 C-4 6.66 -4 7.32 -4 8 C-1.9004467 6.84315671 -1.9004467 6.84315671 0 5 C0.33425735 2.37374861 0.33425735 2.37374861 0 0 Z " fill="#E7EFE5" transform="translate(64,21)"/>
<path d="M0 0 C2.31 0.33 4.62 0.66 7 1 C7.33 3.31 7.66 5.62 8 8 C8.598125 7.505 9.19625 7.01 9.8125 6.5 C12 5 12 5 15 5 C15.1799928 10.21979128 14.97094808 14.07262981 13 19 C13.66 19 14.32 19 15 19 C15.26554687 18.45859375 15.53109375 17.9171875 15.8046875 17.359375 C17.19011305 14.62474418 18.65258458 11.93875859 20.125 9.25 C20.66382812 8.26515625 21.20265625 7.2803125 21.7578125 6.265625 C22.16773438 5.51796875 22.57765625 4.7703125 23 4 C24.32 4.33 25.64 4.66 27 5 C26.01 6.98 25.02 8.96 24 11 C24.99 11.33 25.98 11.66 27 12 C23.20218636 18.70202406 19.18302973 23.82530641 12 27 C8.64952709 27.70093575 5.41959246 27.98572195 2 28 C2 26.02 2 24.04 2 22 C1.34 22 0.68 22 0 22 C0.33 23.98 0.66 25.96 1 28 C-0.5 26.6875 -0.5 26.6875 -2 25 C-2 24.01 -2 23.02 -2 22 C-4.31 21.67 -6.62 21.34 -9 21 C-9 20.34 -9 19.68 -9 19 C-8.01 18.67 -7.02 18.34 -6 18 C-7.32 17.34 -8.64 16.68 -10 16 C-8.68 16 -7.36 16 -6 16 C-6.474375 15.566875 -6.94875 15.13375 -7.4375 14.6875 C-10.11032589 11.80084804 -10.11679718 9.05900514 -10.0625 5.3125 C-10.05347656 4.50425781 -10.04445312 3.69601563 -10.03515625 2.86328125 C-10.02355469 2.24839844 -10.01195312 1.63351563 -10 1 C-4.25 0.875 -4.25 0.875 -2 2 C-2 3.32 -2 4.64 -2 6 C-2.66 6 -3.32 6 -4 6 C-4 6.66 -4 7.32 -4 8 C-1.9004467 6.84315671 -1.9004467 6.84315671 0 5 C0.33425735 2.37374861 0.33425735 2.37374861 0 0 Z " fill="#D2E4CE" transform="translate(64,21)"/>
<path d="M0 0 C0.75539063 0.61746094 1.51078125 1.23492187 2.2890625 1.87109375 C10.69189442 8.97530619 10.69189442 8.97530619 11.4375 13.875 C10.86402793 17.97122904 9.71778549 19.87454669 7 23 C-13.05585548 34.74567462 -38.55907069 33.85702726 -61 33 C-61 32.67 -61 32.34 -61 32 C-60.14470703 31.95512451 -59.28941406 31.91024902 -58.40820312 31.86401367 C-36.0441347 30.72194884 -36.0441347 30.72194884 -14 27 C-12.73027344 26.7628125 -11.46054688 26.525625 -10.15234375 26.28125 C-2.5369873 24.83220596 2.4704309 23.5295691 8 18 C8.6250522 14.7042702 8.85927964 13.13775662 8 10 C2.20867655 1.91400123 -10.01519195 -3.95759248 -19.41796875 -6.70703125 C-32.98582705 -8.2465008 -46.84969115 -7.73310613 -59.0078125 -1.0234375 C-61.28101753 0.14436587 -63.59293302 0.95649138 -66 1.8125 C-73.48219861 4.74782407 -79.15474675 9.92473402 -83 17 C-84.06546898 19.48952515 -84.06546898 19.48952515 -84 22 C-82.66457328 24.78307606 -82.66457328 24.78307606 -81 27 C-82.65 26.34 -84.3 25.68 -86 25 C-86.4969367 19.03675963 -85.46346723 14.93252216 -82 10 C-79.53683616 7.36790236 -76.87827615 5.16403726 -74 3 C-73.42765625 2.55914062 -72.8553125 2.11828125 -72.265625 1.6640625 C-52.02470837 -12.39710525 -19.59702756 -16.28626693 0 0 Z " fill="#161813" transform="translate(103,21)"/>
<path d="M0 0 C0.67675781 0.40347656 1.35351562 0.80695312 2.05078125 1.22265625 C7.87361733 5.03138495 13.2631683 10.54811745 16 17 C16.67624637 23.64707825 15.81072796 30.50311951 15.125 37.125 C15.04636719 37.96675781 14.96773437 38.80851562 14.88671875 39.67578125 C14.35604865 44.9416615 13.63596868 49.95480988 12 55 C11.01 55.33 10.02 55.66 9 56 C9.09087891 55.23969482 9.18175781 54.47938965 9.27539062 53.69604492 C9.69018681 50.19394197 10.09514577 46.69076564 10.5 43.1875 C10.64308594 41.99189453 10.78617188 40.79628906 10.93359375 39.56445312 C12.93676951 26.90006437 12.93676951 26.90006437 10.453125 14.73046875 C4.66759737 8.05249271 -0.85071864 4.32686018 -9 1 C-10.59521484 0.29037109 -10.59521484 0.29037109 -12.22265625 -0.43359375 C-21.04595904 -4.29310538 -28.3217123 -5.14664142 -37.875 -5.0625 C-39.33679688 -5.05573242 -39.33679688 -5.05573242 -40.828125 -5.04882812 C-43.21881434 -5.03710906 -45.6093744 -5.02070219 -48 -5 C-35.17360701 -13.55092866 -11.9756348 -7.26509766 0 0 Z " fill="#171614" transform="translate(106,13)"/>
<path d="M0 0 C0.99 0.33 1.98 0.66 3 1 C2.34 1 1.68 1 1 1 C1 1.66 1 2.32 1 3 C2.32 3.66 3.64 4.32 5 5 C5 5.66 5 6.32 5 7 C4.01 7.495 4.01 7.495 3 8 C4.60480784 11.12606964 4.60480784 11.12606964 6.9453125 11.51171875 C8.02425781 11.59873047 8.02425781 11.59873047 9.125 11.6875 C10.40375 11.790625 11.6825 11.89375 13 12 C13 12.66 13 13.32 13 14 C13.99 14 14.98 14 16 14 C16.38218767 15.65614657 16.71395102 17.32457024 17 19 C14.56515075 21.43484925 8.45339781 20.32972605 5.1875 20.375 C3.6705957 20.43107422 3.6705957 20.43107422 2.12304688 20.48828125 C-5.31477957 20.57676828 -5.31477957 20.57676828 -8.71484375 17.71484375 C-10.41796685 14.1170609 -9.8962356 11.8090013 -9 8 C-5.7 8.33 -2.4 8.66 1 9 C0.67 6.03 0.34 3.06 0 0 Z " fill="#E6EFE3" transform="translate(45,32)"/>
<path d="M0 0 C-3.10509649 1.03503216 -4.6390089 0.77202298 -7.77734375 0.265625 C-15.06273984 -0.60503745 -22.08170664 -0.51574304 -29 2 C-29 2.33 -29 2.66 -29 3 C-30.0415625 3.268125 -31.083125 3.53625 -32.15625 3.8125 C-45.91140058 7.51126889 -64.04884951 12.98769723 -72.5 25.375 C-72.995 26.24125 -73.49 27.1075 -74 28 C-75 25 -75 25 -73.8828125 22.73046875 C-67.82696625 13.96967784 -60.57648422 9.32885357 -51 5 C-49.99195312 4.52433594 -48.98390625 4.04867188 -47.9453125 3.55859375 C-33.15927389 -2.71575791 -15.2960586 -5.54338364 0 0 Z " fill="#47443D" transform="translate(89,6)"/>
<path d="M0 0 C2.6029155 6.81036796 -0.69160665 17.26737596 -3.03515625 23.953125 C-4.21403165 26.43076144 -5.51479879 28.69311604 -7 31 C-7.58910156 31.93585938 -8.17820312 32.87171875 -8.78515625 33.8359375 C-13.026527 40.12632036 -17.31951884 44.39605621 -24 48 C-24.99773437 48.57041016 -24.99773437 48.57041016 -26.015625 49.15234375 C-28 50 -28 50 -32 50 C-32.33 48.68 -32.66 47.36 -33 46 C-32.2265625 45.64808594 -31.453125 45.29617187 -30.65625 44.93359375 C-19.61626016 39.70052926 -11.49008946 33.85076644 -6.9140625 22.24609375 C-4.75665226 16.02529055 -3.10166211 9.71162843 -1.61328125 3.30078125 C-1 1 -1 1 0 0 Z " fill="#151412" transform="translate(115,71)"/>
<path d="M0 0 C1.65 0 3.3 0 5 0 C6.98484038 3.96968076 6.33907693 8.7002051 5.25 12.875 C4 15 4 15 2.3125 16.5 C-1.89843078 17.41047152 -5.30776478 14.84611761 -9 13 C-9.96070434 10.11788698 -10.10581883 8.30149956 -10.0625 5.3125 C-10.05347656 4.50425781 -10.04445312 3.69601563 -10.03515625 2.86328125 C-10.02355469 2.24839844 -10.01195312 1.63351563 -10 1 C-4.25 0.875 -4.25 0.875 -2 2 C-2 3.32 -2 4.64 -2 6 C-2.66 6 -3.32 6 -4 6 C-4 6.66 -4 7.32 -4 8 C-1.9004467 6.84315671 -1.9004467 6.84315671 0 5 C0.33425735 2.37374861 0.33425735 2.37374861 0 0 Z " fill="#F0F6EF" transform="translate(64,21)"/>
<path d="M0 0 C5.47058824 0.60784314 5.47058824 0.60784314 7.6875 2.25 C9.39680624 4.52907499 9.30989536 5.87240671 9.1875 8.6875 C9.16042969 9.49574219 9.13335937 10.30398437 9.10546875 11.13671875 C9.05326172 12.05904297 9.05326172 12.05904297 9 13 C8.34 13 7.68 13 7 13 C6.67 14.65 6.34 16.3 6 18 C5.01 18.33 4.02 18.66 3 19 C2.70351562 19.66515625 2.40703125 20.3303125 2.1015625 21.015625 C1.73804687 21.67046875 1.37453125 22.3253125 1 23 C-1.1640625 23.609375 -1.1640625 23.609375 -3.625 23.75 C-4.44226563 23.80671875 -5.25953125 23.8634375 -6.1015625 23.921875 C-6.72804688 23.94765625 -7.35453125 23.9734375 -8 24 C-7.01 23.34 -6.02 22.68 -5 22 C0.67020899 18.10173132 2.35308173 14.63101303 4 8 C2.68 7.34 1.36 6.68 0 6 C0.185625 5.38125 0.37125 4.7625 0.5625 4.125 C1.23686176 1.95839822 1.23686176 1.95839822 0 0 Z " fill="#DFEBDC" transform="translate(88,26)"/>
<path d="M0 0 C0.66 0 1.32 0 2 0 C3.33257403 9.41002278 3.33257403 9.41002278 2 14 C2.66 14.33 3.32 14.66 4 15 C4.33 14.34 4.66 13.68 5 13 C4.67 14.32 4.34 15.64 4 17 C3.01 17 2.02 17 1 17 C0.34 18.98 -0.32 20.96 -1 23 C-1.66 23 -2.32 23 -3 23 C-3 22.34 -3 21.68 -3 21 C-3.66 21 -4.32 21 -5 21 C-4.67 22.98 -4.34 24.96 -4 27 C-5.5 25.6875 -5.5 25.6875 -7 24 C-7 23.01 -7 22.02 -7 21 C-9.31 20.67 -11.62 20.34 -14 20 C-14 19.34 -14 18.68 -14 18 C-13.01 17.67 -12.02 17.34 -11 17 C-12.32 16.34 -13.64 15.68 -15 15 C-10.92325362 14.1467275 -8.04075573 14.12632308 -4 15 C-3.01 14.67 -2.02 14.34 -1 14 C0.20568053 9.32798795 0.09382426 4.78503708 0 0 Z " fill="#BBD6B4" transform="translate(69,22)"/>
<path d="M0 0 C0.66 0 1.32 0 2 0 C2.35028885 3.67803287 2.11347493 5.7635939 0.5 9.125 C-8.28489893 19.22763377 -27.42995186 21.23406301 -40.19165039 22.15881348 C-50.11847793 22.63649134 -60.07420535 22.37906971 -70 22 C-70 21.67 -70 21.34 -70 21 C-69.14470703 20.95512451 -68.28941406 20.91024902 -67.40820312 20.86401367 C-45.0441347 19.72194884 -45.0441347 19.72194884 -23 16 C-21.09541016 15.64421875 -21.09541016 15.64421875 -19.15234375 15.28125 C-11.5369873 13.83220596 -6.5295691 12.5295691 -1 7 C-0.59952556 4.67724823 -0.2602896 2.34260643 0 0 Z " fill="#262722" transform="translate(112,32)"/>
<path d="M0 0 C0.99 0.33 1.98 0.66 3 1 C2.34 1 1.68 1 1 1 C1 1.66 1 2.32 1 3 C2.32 3.66 3.64 4.32 5 5 C5 5.66 5 6.32 5 7 C4.01 7.495 4.01 7.495 3 8 C4.60480784 11.12606964 4.60480784 11.12606964 6.9453125 11.51171875 C8.02425781 11.59873047 8.02425781 11.59873047 9.125 11.6875 C10.40375 11.790625 11.6825 11.89375 13 12 C13 12.66 13 13.32 13 14 C13.99 14 14.98 14 16 14 C16 14.66 16 15.32 16 16 C2.71574642 17.81049761 2.71574642 17.81049761 -3 14 C-3.9375 11.3125 -3.9375 11.3125 -4 9 C-2.35 9 -0.7 9 1 9 C0.67 6.03 0.34 3.06 0 0 Z " fill="#CBDFC6" transform="translate(45,32)"/>
<path d="M0 0 C0.99 0.66 1.98 1.32 3 2 C-2.34240833 4.47822744 -7.63997112 6.89065841 -13.1875 8.875 C-20.57604549 11.78813081 -26.20680179 17.02051529 -30 24 C-31.06546898 26.48952515 -31.06546898 26.48952515 -31 29 C-29.66457328 31.78307606 -29.66457328 31.78307606 -28 34 C-29.65 33.34 -31.3 32.68 -33 32 C-33.4969367 26.03675963 -32.46346723 21.93252216 -29 17 C-21.28845369 8.75956445 -10.92953936 2.76602569 0 0 Z " fill="#1D201A" transform="translate(50,14)"/>
<path d="M0 0 C1.18464844 0.16371094 2.36929688 0.32742187 3.58984375 0.49609375 C10.23691685 1.23465743 16.88329881 1.10691413 23.5625 1.0625 C24.85736328 1.05798828 26.15222656 1.05347656 27.48632812 1.04882812 C30.657601 1.03712601 33.82877546 1.02073113 37 1 C33.4966563 4.66280963 31.40901744 4.92238463 26.3125 5.203125 C17.6506276 5.3580888 9.18164123 5.2786724 1 2 C0.67 1.34 0.34 0.68 0 0 Z " fill="#6C675C" transform="translate(43,120)"/>
<path d="M0 0 C1.79678629 3.05714074 2.20204073 4.97134064 1.828125 8.484375 C1.69664063 9.76441406 1.69664063 9.76441406 1.5625 11.0703125 C1.459375 11.95460938 1.35625 12.83890625 1.25 13.75 C1.16234375 14.61882813 1.0746875 15.48765625 0.984375 16.3828125 C0.40623561 21.73060188 -0.33820769 26.87418993 -2 32 C-3.485 32.495 -3.485 32.495 -5 33 C-4.55260822 28.62380903 -4.09016442 24.24933467 -3.625 19.875 C-3.49867187 18.6375 -3.37234375 17.4 -3.2421875 16.125 C-3.11328125 14.92617188 -2.984375 13.72734375 -2.8515625 12.4921875 C-2.73635254 11.39245605 -2.62114258 10.29272461 -2.50244141 9.15966797 C-1.99001363 5.93719941 -1.1169464 3.06051379 0 0 Z " fill="#0A0A09" transform="translate(120,36)"/>
<path d="M0 0 C0.66 0 1.32 0 2 0 C1.77224148 5.58008369 0.44742564 8.4845859 -3.39453125 12.5546875 C-7.57299918 16.31632529 -11.56124556 16.21328449 -17 16 C-17 15.34 -17 14.68 -17 14 C-16.35933594 13.74347656 -15.71867187 13.48695312 -15.05859375 13.22265625 C-8.76475686 10.4368596 -5.24144517 7.49039877 -1.375 1.79296875 C-0.92125 1.20128906 -0.4675 0.60960937 0 0 Z " fill="#F3F8F2" transform="translate(90,34)"/>
<path d="M0 0 C0.96679688 0.16242188 1.93359375 0.32484375 2.9296875 0.4921875 C7.3345936 1.11829922 11.68234329 1.1501887 16.125 1.125 C16.95233643 1.12306641 17.77967285 1.12113281 18.63208008 1.11914062 C25.45770279 1.07153384 32.20630247 0.68302884 39 0 C39.66 1.32 40.32 2.64 41 4 C36.6075182 4.04988404 32.21519176 4.08594581 27.82250977 4.10986328 C26.3319206 4.1198467 24.84135064 4.13343822 23.35083008 4.15087891 C15.32869906 4.24231453 7.78546884 4.22943527 0 2 C0 1.34 0 0.68 0 0 Z " fill="#0A0A09" transform="translate(43,118)"/>
<path d="M0 0 C1.24910156 0.13921875 2.49820313 0.2784375 3.78515625 0.421875 C6.9375 1.25 6.9375 1.25 8.87109375 3.328125 C9.39896484 4.27945312 9.39896484 4.27945312 9.9375 5.25 C5.08915992 6.86611336 2.44410713 5.30564536 -2.0625 3.25 C-7.6447968 1.93803163 -13.23978465 2.13731687 -18.9375 2.1875 C-20.39929688 2.19426758 -20.39929688 2.19426758 -21.890625 2.20117188 C-24.28131434 2.21289094 -26.6718744 2.22929781 -29.0625 2.25 C-21.06738571 -3.0800762 -9.17079257 -1.03751054 0 0 Z " fill="#0D0C0C" transform="translate(87.0625,5.75)"/>
<path d="M0 0 C0.33 0 0.66 0 1 0 C1.66 6.6 2.32 13.2 3 20 C3.33 20 3.66 20 4 20 C4.33 23.3 4.66 26.6 5 30 C4.34 30 3.68 30 3 30 C4.32 34.29 5.64 38.58 7 43 C6.34 43 5.68 43 5 43 C4.53536131 41.68971889 4.07875419 40.37659011 3.625 39.0625 C3.24214844 37.96615234 3.24214844 37.96615234 2.8515625 36.84765625 C0.3263207 28.40315501 -0.25739477 20.76212072 -0.125 11.9375 C-0.11597656 10.78572266 -0.10695313 9.63394531 -0.09765625 8.44726562 C-0.07428714 5.63128807 -0.04152565 2.81575842 0 0 Z " fill="#4F4A46" transform="translate(10,50)"/>
<path d="M0 0 C2.16232385 7.30657019 -0.23022368 17.28629384 -3.46875 24.08203125 C-7.05948795 29.52974398 -7.05948795 29.52974398 -10 31 C-9.5625 29.6875 -9.125 28.375 -8.6875 27.0625 C-8.41292969 26.23492187 -8.13835937 25.40734375 -7.85546875 24.5546875 C-7.32593486 22.97333973 -6.78843707 21.39460455 -6.23828125 19.8203125 C-4.36862371 14.4190796 -2.955142 8.97028208 -1.6484375 3.40625 C-1 1 -1 1 0 0 Z " fill="#120A0A" transform="translate(115,71)"/>
<path d="M0 0 C-0.66902344 0.268125 -1.33804688 0.53625 -2.02734375 0.8125 C-9.23525312 3.75371402 -16.27767033 6.95971795 -23.29858398 10.3203125 C-26.17487025 11.69310816 -28.97293955 12.99097985 -32 14 C-32 13.34 -32 12.68 -32 12 C-23.93583565 6.16043271 -10.36191013 -3.45397004 0 0 Z " fill="#5F5C52" transform="translate(54,8)"/>
<path d="M0 0 C0.66 0 1.32 0 2 0 C-0.27956613 7.05695473 -6.14370644 10.32933773 -12.3125 13.9375 C-15 15 -15 15 -19 15 C-19 14.34 -19 13.68 -19 13 C-17.865625 12.484375 -16.73125 11.96875 -15.5625 11.4375 C-9.75659924 8.55007342 -4.58082433 4.58082433 0 0 Z " fill="#6D6862" transform="translate(102,106)"/>
<path d="M0 0 C0.66 0.33 1.32 0.66 2 1 C-1.73584561 7.49527703 -5.27035065 11.60101467 -12 15 C-12.33 14.34 -12.66 13.68 -13 13 C-14.32 13 -15.64 13 -17 13 C-16.34 11.35 -15.68 9.7 -15 8 C-12 8 -12 8 -8 10 C-5.36 6.7 -2.72 3.4 0 0 Z " fill="#B5D2AE" transform="translate(89,32)"/>
<path d="M0 0 C0.66 0 1.32 0 2 0 C3.33257403 9.41002278 3.33257403 9.41002278 2 14 C2.66 14.33 3.32 14.66 4 15 C4.33 14.34 4.66 13.68 5 13 C4.67 14.32 4.34 15.64 4 17 C3.01 17 2.02 17 1 17 C0.34 18.98 -0.32 20.96 -1 23 C-1.66 23 -2.32 23 -3 23 C-3.33 20.36 -3.66 17.72 -4 15 C-3.01 14.67 -2.02 14.34 -1 14 C0.20568053 9.32798795 0.09382426 4.78503708 0 0 Z " fill="#B6D3AF" transform="translate(69,22)"/>
<path d="M0 0 C0.33 0 0.66 0 1 0 C1 12.54 1 25.08 1 38 C0.67 38 0.34 38 0 38 C-0.66 29.42 -1.32 20.84 -2 12 C-1.34 12 -0.68 12 0 12 C0 8.04 0 4.08 0 0 Z " fill="#080707" transform="translate(12,35)"/>
<path d="M0 0 C0.99 0.33 1.98 0.66 3 1 C2.34 1 1.68 1 1 1 C1 1.66 1 2.32 1 3 C2.32 3.66 3.64 4.32 5 5 C5 5.66 5 6.32 5 7 C4.01 7.495 4.01 7.495 3 8 C3.99 9.485 3.99 9.485 5 11 C5.99 11 6.98 11 8 11 C8 11.66 8 12.32 8 13 C9.32 13 10.64 13 12 13 C12 13.66 12 14.32 12 15 C6.36529617 15.5497272 3.61012242 13.95047835 -1 11 C-0.34 10.34 0.32 9.68 1 9 C1.02308597 6.77871445 1.02308597 6.77871445 0.625 4.375 C0.51414063 3.55773438 0.40328125 2.74046875 0.2890625 1.8984375 C0.19367187 1.27195313 0.09828125 0.64546875 0 0 Z " fill="#AECEA6" transform="translate(45,32)"/>
<path d="M0 0 C1.65 0 3.3 0 5 0 C4.67 2.64 4.34 5.28 4 8 C4.99 8.66 5.98 9.32 7 10 C7 10.66 7 11.32 7 12 C4.05436986 11.6815535 2.38923394 11.33733608 0.125 9.375 C-1.46941325 6.00901647 -0.75430117 3.56578737 0 0 Z " fill="#D5E5D1" transform="translate(36,40)"/>
<path d="M0 0 C0.66 0 1.32 0 2 0 C4 3 4 3 3.9375 6.3125 C2.78697578 10.83789525 1.17883824 12.65814442 -2 16 C-1.67 16.66 -1.34 17.32 -1 18 C-3.97 18.33 -6.94 18.66 -10 19 C-9.01 18.34 -8.02 17.68 -7 17 C-1.32979101 13.10173132 0.35308173 9.63101303 2 3 C1.34 2.67 0.68 2.34 0 2 C0 1.34 0 0.68 0 0 Z " fill="#C5DCBF" transform="translate(90,31)"/>
<path d="M0 0 C0.66 0 1.32 0 2 0 C2.32613281 0.79664062 2.65226563 1.59328125 2.98828125 2.4140625 C5.16848218 7.70056742 7.32988508 12.94083489 10 18 C7.37781519 17.63831934 6.24957238 17.28204225 4.46875 15.26953125 C2.89752895 12.84166042 2.10359215 10.71260103 1.3125 7.9375 C1.06113281 7.08027344 0.80976563 6.22304687 0.55078125 5.33984375 C0 3 0 3 0 0 Z " fill="#0C0C0B" transform="translate(13,80)"/>
<path d="M0 0 C8.29565877 3.01660319 15.05496638 8.58562162 21 15 C20.67 15.66 20.34 16.32 20 17 C19.64550781 16.5875 19.29101562 16.175 18.92578125 15.75 C14.08989715 10.50429521 8.72972775 7.21807376 2.59765625 3.69921875 C1.74042969 3.13847656 0.88320312 2.57773437 0 2 C0 1.34 0 0.68 0 0 Z " fill="#0F120E" transform="translate(92,15)"/>
<path d="M0 0 C1.65 0.66 3.3 1.32 5 2 C5 2.33 5 2.66 5 3 C3.84242187 3.32613281 2.68484375 3.65226563 1.4921875 3.98828125 C-0.04696334 4.42937936 -1.58602095 4.87080289 -3.125 5.3125 C-3.88554688 5.52583984 -4.64609375 5.73917969 -5.4296875 5.95898438 C-9.90147722 7.25040641 -13.85109567 8.84988393 -18 11 C-18.66 11 -19.32 11 -20 11 C-20 10.34 -20 9.68 -20 9 C-19.4652002 8.79842285 -18.93040039 8.5968457 -18.37939453 8.38916016 C-15.95911529 7.47333617 -13.54206236 6.54927878 -11.125 5.625 C-10.28324219 5.30789062 -9.44148438 4.99078125 -8.57421875 4.6640625 C-7.76855469 4.3546875 -6.96289062 4.0453125 -6.1328125 3.7265625 C-5.01737061 3.30238037 -5.01737061 3.30238037 -3.87939453 2.86962891 C-1.81622682 2.04608914 -1.81622682 2.04608914 0 0 Z " fill="#171614" transform="translate(55,6)"/>
<path d="M0 0 C2.92879371 0.62759865 5.36095629 1.58622659 8 3 C8 3.66 8 4.32 8 5 C7.34 5 6.68 5 6 5 C6.33 6.65 6.66 8.3 7 10 C5.68 10 4.36 10 3 10 C2.34 8.35 1.68 6.7 1 5 C1.99 5.33 2.98 5.66 4 6 C3.34 5.38125 2.68 4.7625 2 4.125 C0 2 0 2 0 0 Z " fill="#D8E7D4" transform="translate(46,33)"/>
<path d="M0 0 C1.39682559 3.82239436 0.64083517 6.78791269 -0.25 10.6875 C-0.50265625 11.84636719 -0.7553125 13.00523438 -1.015625 14.19921875 C-1.34046875 15.12347656 -1.6653125 16.04773438 -2 17 C-2.99 17.33 -3.98 17.66 -5 18 C-4.0122936 11.57409836 -2.86390108 5.85797948 0 0 Z " fill="#050404" transform="translate(115,71)"/>
<path d="M0 0 C6.06426294 0.31917173 11.31055493 3.27439344 16 7 C16 7.99 16 8.98 16 10 C12.04 8.02 8.08 6.04 4 4 C4 3.34 4 2.68 4 2 C2.68 1.34 1.36 0.68 0 0 Z " fill="#7C6F61" transform="translate(93,8)"/>
<path d="M0 0 C-0.99 0.66 -1.98 1.32 -3 2 C-3.144375 2.825 -3.28875 3.65 -3.4375 4.5 C-4 7 -4 7 -6.0625 8.3125 C-7.0215625 8.6528125 -7.0215625 8.6528125 -8 9 C-8 8.34 -8 7.68 -8 7 C-7.34 7 -6.68 7 -6 7 C-6 5.68 -6 4.36 -6 3 C-8.31 2.67 -10.62 2.34 -13 2 C-13 1.67 -13 1.34 -13 1 C-8.61414671 0.29826347 -4.44209357 -0.10834375 0 0 Z " fill="#B8D4B1" transform="translate(68,20)"/>
<path d="M0 0 C0.99 0.66 1.98 1.32 3 2 C1.27398621 2.81917642 -0.4559647 3.63006016 -2.1875 4.4375 C-3.15042969 4.88996094 -4.11335938 5.34242187 -5.10546875 5.80859375 C-7.76631586 6.90381422 -10.16784755 7.54954796 -13 8 C-13 7.01 -13 6.02 -13 5 C-10.90278769 4.10846039 -8.79693661 3.23721781 -6.6875 2.375 C-4.92986328 1.64410156 -4.92986328 1.64410156 -3.13671875 0.8984375 C-2.10160156 0.60195312 -1.06648438 0.30546875 0 0 Z " fill="#1D231A" transform="translate(50,14)"/>
<path d="M0 0 C3.625 -0.1875 3.625 -0.1875 7 0 C6.3203125 1.953125 6.3203125 1.953125 5 4 C2.6171875 4.609375 2.6171875 4.609375 -0.125 4.75 C-1.03507812 4.80671875 -1.94515625 4.8634375 -2.8828125 4.921875 C-3.58148438 4.94765625 -4.28015625 4.9734375 -5 5 C-5 3.68 -5 2.36 -5 1 C-4.34 1 -3.68 1 -3 1 C-2.67 1.66 -2.34 2.32 -2 3 C-1.34 2.01 -0.68 1.02 0 0 Z " fill="#C9DFC4" transform="translate(71,44)"/>
<path d="M0 0 C0.33 0 0.66 0 1 0 C1.31563182 5.26053037 0.66590937 8.44573816 -2 13 C-2.66 13 -3.32 13 -4 13 C-4.33 13.99 -4.66 14.98 -5 16 C-5.99 15.67 -6.98 15.34 -8 15 C-7.59007813 14.50371094 -7.18015625 14.00742187 -6.7578125 13.49609375 C-3.23945432 9.06026897 -1.15643261 5.55087651 0 0 Z " fill="#E6F0E4" transform="translate(95,32)"/>
<path d="M0 0 C2.31 0.66 4.62 1.32 7 2 C6.67 2.66 6.34 3.32 6 4 C2.04 4 -1.92 4 -6 4 C-6 3.34 -6 2.68 -6 2 C-4.02 2 -2.04 2 0 2 C0 1.34 0 0.68 0 0 Z " fill="#FAFCFA" transform="translate(55,48)"/>
<path d="M0 0 C-1.83297995 2.34214105 -2.96464119 2.99000729 -5.875 3.8125 C-9.21884463 4.01313068 -11.03530199 3.482349 -14 2 C-14 1.67 -14 1.34 -14 1 C-9.23692563 0.04738513 -4.8333472 -0.08333357 0 0 Z " fill="#6B5A54" transform="translate(80,121)"/>
<path d="M0 0 C0.33 0.99 0.66 1.98 1 3 C-4.0302076 2.47462276 -9.01885239 1.89405214 -14 1 C-14 0.67 -14 0.34 -14 0 C-12.41773035 -0.19627391 -10.83410729 -0.38165538 -9.25 -0.5625 C-8.36828125 -0.66691406 -7.4865625 -0.77132812 -6.578125 -0.87890625 C-4.06725449 -0.99684108 -2.32230542 -0.95716642 0 0 Z " fill="#141312" transform="translate(83,119)"/>
<path d="M0 0 C0.53625 0.226875 1.0725 0.45375 1.625 0.6875 C0.5625 2.6875 0.5625 2.6875 -1.375 4.6875 C-5.0625 4.9375 -5.0625 4.9375 -8.375 4.6875 C-8.375 4.0275 -8.375 3.3675 -8.375 2.6875 C-2.95961538 -0.38942308 -2.95961538 -0.38942308 0 0 Z " fill="#F6FAF5" transform="translate(81.375,45.3125)"/>
<path d="M0 0 C3 2 3 2 3.625 5 C3.74875 5.99 3.8725 6.98 4 8 C4.33 8.66 4.66 9.32 5 10 C0.125 8.125 0.125 8.125 -1 7 C-0.71269945 4.66055264 -0.38063221 2.3260857 0 0 Z " fill="#F3F7F1" transform="translate(40,41)"/>
<path d="M0 0 C0.66 0 1.32 0 2 0 C1.54775239 5.91492272 0.8417395 11.35199888 -1 17 C-1.33 17 -1.66 17 -2 17 C-1.9278125 16.09636719 -1.855625 15.19273438 -1.78125 14.26171875 C-1.6884375 13.08222656 -1.595625 11.90273437 -1.5 10.6875 C-1.4071875 9.51574219 -1.314375 8.34398438 -1.21875 7.13671875 C-1.07635011 5.094806 -1 3.0468721 -1 1 C-0.67 0.67 -0.34 0.34 0 0 Z " fill="#4D4946" transform="translate(116,68)"/>
<path d="M0 0 C0.65234375 1.734375 0.65234375 1.734375 1 4 C0.00390625 6.140625 0.00390625 6.140625 -1.4375 8.25 C-1.91058594 8.95640625 -2.38367188 9.6628125 -2.87109375 10.390625 C-3.24363281 10.92171875 -3.61617188 11.4528125 -4 12 C-5.32 11.34 -6.64 10.68 -8 10 C-4 6 -4 6 -2.3125 4.4375 C-0.74722111 2.91856078 -0.74722111 2.91856078 0 0 Z " fill="#3C3528" transform="translate(109,95)"/>
<path d="M0 0 C0.66 0.33 1.32 0.66 2 1 C1.360625 1.886875 0.72125 2.77375 0.0625 3.6875 C-1.80829757 6.69211428 -2.59423966 8.5510371 -3 12 C-3.99 11.67 -4.98 11.34 -6 11 C-5.39305845 7.84669446 -4.3583335 5.81111133 -2.4375 3.25 C-1.98246094 2.63640625 -1.52742187 2.0228125 -1.05859375 1.390625 C-0.70925781 0.93171875 -0.35992187 0.4728125 0 0 Z " fill="#474643" transform="translate(17,24)"/>
<path d="M0 0 C-1.62170379 1.00533667 -3.24747237 2.00411907 -4.875 3 C-6.23238281 3.8353125 -6.23238281 3.8353125 -7.6171875 4.6875 C-10 6 -10 6 -12 6 C-12 5.34 -12 4.68 -12 4 C-10.390625 2.67578125 -10.390625 2.67578125 -8.25 1.3125 C-7.55390625 0.85488281 -6.8578125 0.39726562 -6.140625 -0.07421875 C-3.60909275 -1.16906025 -2.53899138 -0.9435441 0 0 Z " fill="#827371" transform="translate(34,16)"/>
<path d="M0 0 C2.31 0.66 4.62 1.32 7 2 C7 2.33 7 2.66 7 3 C2.38 3 -2.24 3 -7 3 C-6.67 2.34 -6.34 1.68 -6 1 C-4.7934375 1.0309375 -4.7934375 1.0309375 -3.5625 1.0625 C-1.06645115 1.29633621 -1.06645115 1.29633621 0 0 Z " fill="#8D887D" transform="translate(64,122)"/>
<path d="M0 0 C0.99 0 1.98 0 3 0 C3 0.66 3 1.32 3 2 C4.32 2.33 5.64 2.66 7 3 C6.34 4.32 5.68 5.64 5 7 C3.0625 6.3125 3.0625 6.3125 1 5 C0.25 2.375 0.25 2.375 0 0 Z " fill="#D5E6D1" transform="translate(41,41)"/>
<path d="M0 0 C0.66 0 1.32 0 2 0 C1.25 6.75 1.25 6.75 -1 9 C-1 7.68 -1 6.36 -1 5 C-1.99 5.66 -2.98 6.32 -4 7 C-2.79618552 4.50638429 -1.54571278 2.31856917 0 0 Z " fill="#E4EEE1" transform="translate(90,34)"/>
<path d="M0 0 C-3.85756507 2.15305957 -6.55129785 3.39253254 -11 3 C-11 2.34 -11 1.68 -11 1 C-3.57142857 -1.42857143 -3.57142857 -1.42857143 0 0 Z " fill="#7B7773" transform="translate(54,8)"/>
<path d="M0 0 C-1.26941497 3.91402949 -2.51167694 5.79072873 -6 8 C-6.33 7.01 -6.66 6.02 -7 5 C-2.25 0 -2.25 0 0 0 Z " fill="#65615D" transform="translate(104,106)"/>
<path d="M0 0 C1.32 0 2.64 0 4 0 C4 1.98 4 3.96 4 6 C3.01 6.33 2.02 6.66 1 7 C0.67 4.69 0.34 2.38 0 0 Z " fill="#ADCEA6" transform="translate(65,38)"/>
<path d="M0 0 C2.475 0.495 2.475 0.495 5 1 C5.33 2.65 5.66 4.3 6 6 C5.01 6 4.02 6 3 6 C3 5.01 3 4.02 3 3 C2.34 3 1.68 3 1 3 C0.67 2.01 0.34 1.02 0 0 Z " fill="#CADFC6" transform="translate(60,37)"/>
<path d="M0 0 C0.99 0.33 1.98 0.66 3 1 C-0.63 3.31 -4.26 5.62 -8 8 C-5.79795605 3.59591211 -4.23481604 2.33347006 0 0 Z " fill="#0C0E0B" transform="translate(34,21)"/>
<path d="M0 0 C0.99 0.66 1.98 1.32 3 2 C1.66666667 4.66666667 0.33333333 7.33333333 -1 10 C-2.46726798 6.18510326 -1.43336419 3.70988378 0 0 Z " fill="#D9E8D5" transform="translate(70,38)"/>
<path d="M0 0 C0.66 1.32 1.32 2.64 2 4 C1.01 5.485 1.01 5.485 0 7 C-0.99 6.67 -1.98 6.34 -3 6 C-1.125 1.125 -1.125 1.125 0 0 Z " fill="#C5DCBF" transform="translate(81,36)"/>
<path d="M0 0 C0.99 0.33 1.98 0.66 3 1 C2.34 1 1.68 1 1 1 C1 1.66 1 2.32 1 3 C2.32 3.66 3.64 4.32 5 5 C5 5.66 5 6.32 5 7 C3.35 6.67 1.7 6.34 0 6 C0 4.02 0 2.04 0 0 Z " fill="#BCD7B6" transform="translate(45,32)"/>
<path d="M0 0 C0.99 0 1.98 0 3 0 C2.34 2.31 1.68 4.62 1 7 C0.01 6.67 -0.98 6.34 -2 6 C-1.34 4.02 -0.68 2.04 0 0 Z " fill="#DEEBDB" transform="translate(72,30)"/>
<path d="M0 0 C0.99 0.33 1.98 0.66 3 1 C3 2.32 3 3.64 3 5 C2.34 5 1.68 5 1 5 C0.67 5.66 0.34 6.32 0 7 C-0.66 5.35 -1.32 3.7 -2 2 C-1.34 2 -0.68 2 0 2 C0 1.34 0 0.68 0 0 Z " fill="#DCEAD9" transform="translate(59,22)"/>
<path d="M0 0 C0.66 0.66 1.32 1.32 2 2 C-1.44069624 4.29379749 -2.72290301 5 -7 5 C-7 4.34 -7 3.68 -7 3 C-4.69 2.01 -2.38 1.02 0 0 Z " fill="#1F1D1B" transform="translate(89,114)"/>
<path d="M0 0 C1.125 1.5625 1.125 1.5625 2 4 C1.125 7.75 1.125 7.75 0 11 C-0.33 11 -0.66 11 -1 11 C-1.02688151 9.35425434 -1.04634123 7.70838587 -1.0625 6.0625 C-1.07410156 5.14597656 -1.08570312 4.22945312 -1.09765625 3.28515625 C-1 1 -1 1 0 0 Z " fill="#020202" transform="translate(120,36)"/>
<path d="M0 0 C1.84765625 0.33984375 1.84765625 0.33984375 4.0625 0.9375 C5.16271484 1.22947266 5.16271484 1.22947266 6.28515625 1.52734375 C7.13400391 1.76130859 7.13400391 1.76130859 8 2 C7.34 2.66 6.68 3.32 6 4 C2.70285207 3.67028521 1.3773161 3.3773161 -1 1 C-0.67 0.67 -0.34 0.34 0 0 Z " fill="#090908" transform="translate(89,8)"/>
<path d="M0 0 C3.93673644 1.31224548 6.22719294 2.91910327 9 6 C5.59687262 4.94124926 2.98646769 3.99097846 0 2 C0 1.34 0 0.68 0 0 Z " fill="#080907" transform="translate(92,15)"/>
<path d="M0 0 C0.99 0.99 1.98 1.98 3 3 C-0.4352048 5.29013653 -1.985331 5.17842973 -6 5 C-5.01 4.34 -4.02 3.68 -3 3 C-1.98131338 2.01904252 -0.97648017 1.02297922 0 0 Z " fill="#D6E1D2" transform="translate(86,45)"/>
<path d="M0 0 C0.66 0.33 1.32 0.66 2 1 C-1.75 6.875 -1.75 6.875 -4 8 C-3.40072174 4.64404172 -2.15377564 2.62198774 0 0 Z " fill="#AACCA1" transform="translate(89,32)"/>
<path d="M0 0 C0.66 0.33 1.32 0.66 2 1 C1 3 0 5 -1 7 C-1.66 7 -2.32 7 -3 7 C-2.38722388 4.03824877 -1.74627478 2.61941217 0 0 Z " fill="#E9F2E7" transform="translate(85,33)"/>
</svg>
